<?xml version="1.0" standalone="no"?>
<!DOCTYPE svg PUBLIC "-//W3C//DTD SVG 20010904//EN"
 "http://www.w3.org/TR/2001/REC-SVG-20010904/DTD/svg10.dtd">
<svg version="1.0" xmlns="http://www.w3.org/2000/svg"
 width="500.000000pt" height="500.000000pt" viewBox="0 0 500.000000 500.000000"
 preserveAspectRatio="xMidYMid meet">

<g transform="translate(0.000000,500.000000) scale(0.100000,-0.100000)"
fill="#000000" stroke="none">
<path d="M0 2500 l0 -2500 2500 0 2500 0 0 2500 0 2500 -2500 0 -2500 0 0
-2500z m1179 656 c16 -20 3 -46 -24 -46 -27 0 -36 17 -23 43 10 20 31 22 47 3z
m150 -116 c239 -72 411 -298 411 -540 0 -172 -101 -366 -238 -458 -101 -68
-182 -95 -302 -100 -162 -6 -266 27 -383 123 -124 100 -196 244 -204 405 -13
259 136 479 381 562 104 35 234 38 335 8z m3171 -15 l0 -25 -170 0 -170 0 0
25 0 25 170 0 170 0 0 -25z m-1430 -2 l-1065 -3 -87 -87 c-57 -56 -88 -96 -90
-112 -2 -20 -9 -26 -28 -26 -20 0 -25 5 -25 25 0 19 6 26 26 28 16 2 56 34
114 92 l90 90 1065 -2 1065 -3 -1065 -2z m-500 -58 c0 -12 -16 -15 -84 -15
-62 0 -87 4 -96 15 -11 13 -1 15 84 15 79 0 96 -3 96 -15z m-315 -235 c10 -8
15 -30 15 -66 0 -59 -14 -74 -69 -74 -43 0 -42 28 2 32 29 3 32 6 35 39 4 44
-15 62 -60 57 l-33 -3 -3 -112 c-2 -91 -5 -113 -17 -113 -12 0 -15 22 -15 124
0 90 3 126 13 129 24 9 116 0 132 -13z m221 -5 c19 -25 18 -90 -1 -109 -19
-19 -19 -19 10 -67 24 -37 26 -59 4 -59 -5 0 -23 25 -40 55 -21 38 -37 55 -51
55 -32 0 -14 25 21 28 31 3 32 5 29 45 -3 42 -3 42 -45 45 l-43 3 0 -115 c0
-96 -3 -116 -15 -116 -13 0 -15 20 -15 123 0 68 3 127 7 130 3 4 33 5 66 4 44
-3 63 -8 73 -22z m177 18 c45 -8 30 -23 -23 -23 l-50 0 0 -100 0 -100 55 0
c42 0 55 -3 55 -15 0 -22 -135 -22 -144 1 -11 30 -7 219 6 232 12 12 49 14
101 5z m214 -10 c3 -8 -13 -13 -49 -15 l-53 -3 0 -95 0 -95 58 -3 c43 -2 57
-7 57 -18 0 -12 -14 -14 -72 -12 l-73 3 -3 122 c-3 137 -7 130 82 129 29 -1
51 -6 53 -13z m186 11 c30 -9 19 -24 -18 -24 l-35 0 0 -115 c0 -94 -3 -115
-15 -115 -12 0 -15 22 -17 113 l-3 112 -32 3 c-31 3 -40 11 -28 24 7 7 126 9
148 2z m82 -125 c0 -110 -2 -124 -17 -127 -16 -3 -18 8 -18 121 0 68 3 127 7
131 21 21 28 -9 28 -125z m301 116 c14 -9 24 -25 24 -40 0 -35 -17 -39 -32 -8
-10 21 -22 29 -46 31 -51 5 -63 -12 -53 -70 0 -5 20 -8 44 -8 62 0 87 -21 87
-75 0 -34 -5 -47 -22 -59 -30 -21 -106 -21 -130 1 -18 16 -24 53 -11 66 10 11
33 -13 33 -35 0 -17 6 -19 48 -16 43 3 47 5 50 31 5 41 -14 57 -64 57 -56 0
-76 20 -72 73 2 31 9 44 24 52 35 17 94 17 120 0z m112 -118 c2 -109 0 -127
-13 -127 -13 0 -15 20 -15 131 0 100 3 130 13 127 8 -3 13 -41 15 -131z m108
125 c7 -4 26 -43 43 -87 47 -122 51 -123 51 -13 0 60 4 99 11 104 21 13 29
-21 29 -127 0 -85 -3 -109 -16 -120 -26 -21 -46 1 -83 95 -19 47 -38 86 -43
86 -4 0 -8 -43 -8 -95 0 -78 -3 -95 -15 -95 -13 0 -15 20 -15 124 0 90 3 126
13 129 17 8 21 8 33 -1z m329 -12 c20 -17 20 -70 0 -70 -8 0 -15 8 -15 18 0
26 -20 42 -51 42 -42 0 -50 -19 -47 -112 l3 -83 45 0 45 0 3 48 c3 39 6 48 20
45 13 -3 17 -14 16 -52 -1 -59 -19 -76 -82 -76 -78 0 -82 6 -82 125 0 93 2
105 20 118 24 17 103 15 125 -3z m108 -17 c4 -32 3 -139 -2 -205 0 -10 -8 -18
-16 -18 -13 0 -15 20 -15 123 0 68 3 127 7 130 14 14 21 6 26 -30z m137 -99
c0 -104 -2 -124 -15 -124 -13 0 -15 20 -15 123 0 68 3 127 6 130 18 18 24 -15
24 -129z m-1572 13 c4 -20 -25 -34 -39 -20 -14 14 1 45 20 41 9 -2 17 -11 19
-21z m181 14 c17 -11 7 -41 -13 -41 -19 0 -29 17 -22 35 6 17 15 18 35 6z
m1329 -14 c4 -20 -25 -34 -39 -20 -14 14 1 45 20 41 9 -2 17 -11 19 -21z
m-218 -17 c0 -21 -33 -29 -45 -10 -9 15 4 30 26 30 12 0 19 -7 19 -20z m-2115
-90 c0 -20 -5 -25 -25 -25 -28 0 -41 32 -18 46 23 15 43 5 43 -21z m-1275 -25
c10 -12 10 -18 0 -30 -7 -8 -18 -15 -25 -15 -7 0 -18 7 -25 15 -10 12 -10 18
0 30 7 8 18 15 25 15 7 0 18 -7 25 -15z m2588 -232 c-241 -2 -635 -2 -875 0
-241 1 -44 2 437 2 481 0 678 -1 438 -2z m482 -29 c0 -2 -9 0 -20 6 -11 6 -20
13 -20 16 0 2 9 0 20 -6 11 -6 20 -13 20 -16z m-1477 -27 c29 -19 68 -43 87
-55 l35 -22 -105 0 -105 1 -85 54 -85 55 103 0 c100 0 105 -1 155 -33z m277
-18 c44 -28 80 -53 80 -55 0 -2 -44 -4 -97 -4 l-98 0 -85 55 -85 55 102 0 102
0 81 -51z m211 21 c28 -17 68 -42 87 -55 l37 -25 -102 0 -102 0 -87 55 -88 55
102 0 c95 0 104 -2 153 -30z m1069 -26 c0 -2 -9 0 -20 6 -11 6 -20 13 -20 16
0 2 9 0 20 -6 11 -6 20 -13 20 -16z m50 -30 c0 -2 -9 0 -20 6 -11 6 -20 13
-20 16 0 2 9 0 20 -6 11 -6 20 -13 20 -16z m696 1 c6 -15 -12 -45 -27 -45 -4
0 -15 7 -24 16 -12 12 -13 19 -4 30 15 19 48 18 55 -1z m-3238 -291 c4 -27
-26 -40 -46 -20 -21 20 -8 48 20 44 14 -2 24 -11 26 -24z"/>
<path d="M1010 3011 c-244 -81 -397 -315 -371 -568 0 -7 12 -13 25 -13 20 0
25 -6 31 -39 9 -55 55 -148 100 -201 98 -117 232 -180 385 -180 53 0 60 -2 60
-20 0 -24 8 -24 76 -6 131 35 269 144 331 262 40 75 63 168 63 257 0 64 -1 67
-23 67 -21 0 -26 9 -41 63 -58 208 -256 356 -478 357 -51 0 -58 2 -58 20 0 25
-25 25 -100 1z m55 -131 c-19 -38 -35 -71 -35 -74 0 -2 9 -2 20 1 12 3 35 33
58 74 20 38 43 69 50 69 9 0 3 -18 -17 -54 -37 -63 -37 -66 -11 -66 14 0 28
17 50 60 17 33 35 60 40 60 14 0 13 -5 -15 -60 -30 -59 -30 -60 -7 -60 12 0
27 19 45 55 15 30 31 55 37 55 14 0 13 -5 -15 -60 -30 -59 -30 -60 -7 -60 12
0 27 17 43 50 13 27 29 49 36 50 14 0 8 -19 -20 -67 -10 -18 -16 -37 -12 -43
13 -22 33 -8 55 40 13 29 27 47 32 42 5 -5 -2 -30 -16 -57 -14 -26 -23 -51
-20 -56 12 -21 32 -6 54 41 14 30 27 47 33 41 5 -5 -2 -30 -18 -60 -24 -49
-26 -71 -5 -71 6 0 21 23 35 50 14 28 30 48 35 45 6 -3 -3 -32 -20 -66 -29
-56 -31 -79 -10 -79 6 0 21 23 35 50 14 28 30 50 35 50 14 0 13 -4 -20 -70
-32 -62 -36 -85 -20 -95 5 -3 24 23 42 57 20 41 33 57 36 46 2 -10 -13 -49
-33 -88 -29 -54 -36 -76 -30 -97 6 -26 10 -22 50 56 24 49 44 79 47 70 3 -8
-16 -57 -43 -109 -26 -52 -57 -120 -69 -151 -11 -31 -34 -75 -50 -97 -15 -22
-50 -80 -76 -128 -52 -98 -62 -114 -75 -114 -5 0 9 34 31 75 22 41 40 77 40
80 0 3 -12 -1 -28 -9 -18 -9 -39 -38 -62 -85 -18 -39 -40 -71 -47 -71 -9 0 -4
19 18 61 16 34 28 63 25 66 -13 13 -37 -10 -62 -59 -32 -63 -44 -79 -54 -73
-5 3 5 30 21 60 35 65 35 65 8 65 -15 0 -27 -15 -47 -60 -15 -32 -33 -59 -39
-60 -18 0 -16 9 12 59 30 51 31 61 7 61 -11 0 -26 -18 -41 -50 -13 -27 -30
-50 -38 -50 -10 0 -7 13 12 50 29 57 31 70 10 70 -8 0 -26 -22 -40 -50 -14
-27 -30 -50 -35 -50 -14 0 -13 5 15 60 29 58 29 56 10 64 -11 4 -22 -9 -40
-44 -14 -28 -30 -50 -35 -50 -14 0 -13 5 16 61 20 41 23 53 13 65 -10 12 -17
5 -44 -42 -18 -32 -35 -52 -39 -46 -4 6 7 35 24 65 27 48 29 56 15 67 -9 7
-17 11 -18 9 -1 -2 -15 -28 -30 -58 -19 -38 -28 -49 -33 -38 -3 9 6 35 20 60
26 44 33 81 17 91 -5 3 -22 -19 -37 -49 -28 -52 -44 -69 -44 -43 0 6 15 39 33
72 29 55 38 106 18 106 -4 0 -22 -31 -41 -70 -22 -45 -37 -66 -42 -58 -4 8 11
47 38 96 35 64 44 92 42 120 -3 36 -4 35 -52 -58 -29 -55 -51 -88 -53 -79 -2
9 33 88 79 175 46 88 106 203 133 256 28 54 56 98 63 98 9 0 -3 -31 -32 -87
-26 -47 -45 -90 -44 -94 7 -18 60 45 94 112 40 81 52 99 65 99 5 0 -7 -31 -26
-70z m-143 -17 c-7 -16 -54 -109 -159 -311 -24 -47 -39 -67 -41 -55 -3 18 152
329 181 364 21 24 29 24 19 2z m-161 -186 c-10 -9 -11 -8 -5 6 3 10 9 15 12
12 3 -3 0 -11 -7 -18z m752 -345 c-64 -125 -121 -230 -127 -234 -25 -17 -25
-6 -3 35 22 38 151 285 206 395 12 23 26 40 31 37 6 -4 -42 -108 -107 -233z
m111 101 c-8 -34 -109 -231 -131 -256 -27 -30 -25 -12 5 44 16 30 50 96 76
147 27 50 50 92 52 92 3 0 1 -12 -2 -27z"/>
<path d="M1113 2779 c-55 -10 -90 -29 -136 -74 -118 -115 -118 -303 1 -414 87
-80 219 -100 319 -48 70 36 118 89 143 154 80 213 -100 424 -327 382z"/>
</g>
</svg>
